<?xml version="1.0"?>
<svg width="325" height="150" xmlns="http://www.w3.org/2000/svg" xmlns:svg="http://www.w3.org/2000/svg">
 <!-- Created with SVG-edit - http://svg-edit.googlecode.com/ -->
 <g>
  <title>Layer 1</title>
  <path id="svg_1" d="m299.44243,73.469826c-3.881939,-0.652915 -7.922259,-1.082805 -11.202998,-1.199166l-0.578574,-0.019394c0.132522,-0.290903 0.232722,-0.488071 0.265045,-0.517161c0.07111,-0.058181 0.12929,-0.303832 0.135755,-0.543019c0,-0.132522 0.05818,-0.562412 0.148683,-1.131289c0.888871,0.032322 2.068644,0.05818 3.355082,0.067877c4.967977,0.038787 10.165445,0.439587 13.730623,1.069877c2.123592,0.374941 2.824991,0.362012 1.257347,-0.019394c-1.587037,-0.384638 -6.293202,-0.950283 -10.042619,-1.195935c-2.517927,-0.171309 -6.128357,-0.235954 -8.255181,-0.200399c0.061413,-0.368478 0.132523,-0.778974 0.206864,-1.199167c0.3006,-1.625825 0.4008,-3.261346 0.407265,-6.516228c0.006464,-5.048784 -0.265045,-6.438654 -1.910264,-9.777574c-0.669077,-1.364012 -1.425424,-2.52116 -2.340153,-3.56841c0.798367,-2.356315 0.778974,-6.005532 -0.048484,-9.205465c-0.682006,-2.624592 -0.921193,-2.792669 -3.300133,-2.288437c-2.016927,0.42989 -3.633055,1.014928 -5.704931,2.058947c-0.979374,0.494535 -2.330457,1.263812 -3.30983,1.868244c-2.553482,-0.898567 -5.194235,-1.493302 -8.012763,-1.813296c-2.857314,-0.323225 -9.861612,-0.142219 -12.347217,0.316761c-2.430656,0.449284 -4.618893,0.998767 -6.600266,1.651683c-0.98907,-0.610896 -2.424192,-1.435122 -3.448817,-1.952283c-2.081573,-1.04725 -3.697701,-1.629056 -5.721093,-2.058947c-2.372476,-0.507464 -2.618127,-0.336154 -3.296901,2.288438c-0.840386,3.241952 -0.846851,6.952582 -0.016161,9.302432c0.096968,0.268277 0.155148,0.45898 0.177774,0.607664c-3.368011,4.24072 -4.466978,8.985671 -3.736488,15.608563c0.190703,1.726025 0.484839,3.30983 0.895335,4.761113c-2.14945,-0.012929 -5.207164,0.064645 -7.414795,0.206865c-3.755881,0.248883 -8.462046,0.808064 -10.049083,1.192702c-1.564412,0.381406 -0.869477,0.394335 1.257347,0.022626c3.565179,-0.627058 8.765878,-1.034322 13.730623,-1.069877c0.937354,-0.003232 1.813296,-0.022626 2.566411,-0.042019c0.226258,0.766044 0.484839,1.496534 0.778974,2.191469l-0.022626,0.003232c-3.28074,0.113129 -7.317827,0.543019 -11.199766,1.195935c-2.912263,0.488071 -7.211163,1.464212 -7.712163,1.745418c-0.526857,0.294136 -0.096967,0.22949 2.159147,-0.342619c4.114662,-1.040786 9.464045,-1.839153 16.09017,-2.395101l0.740186,-0.064646c1.422193,3.303366 3.613662,5.824525 6.710163,7.789737c1.894102,1.205631 4.92919,2.443585 6.458047,2.637521c0.420194,0.051716 1.641986,0.303832 2.715095,0.555948c1.076342,0.252116 3.18054,0.63029 4.673842,0.846851l0.035555,0c-0.02909,0.019393 -0.054948,0.032322 -0.080806,0.051716c-1.810064,0.940586 -2.986605,2.404798 -3.778507,4.709397c-0.355549,0.106664 -0.798368,0.252116 -1.276741,0.416961c-1.709864,0.581806 -2.375708,0.701399 -4.108198,0.714328c-1.797134,0.012929 -2.223792,-0.064645 -3.296901,-0.568877c-1.561179,-0.727257 -3.015694,-2.065411 -3.985371,-3.662146c-1.61936,-2.669843 -4.418494,-4.55748 -6.752182,-4.55748c-1.994302,0 -2.372476,0.808064 -0.93089,1.987837c2.172076,1.774508 3.794668,3.584572 4.460513,4.967977c0.374942,0.775741 0.950283,1.974908 1.283206,2.663379c0.352315,0.733722 1.105431,1.729257 1.822992,2.417727c1.687237,1.609664 3.316294,2.378941 5.746951,2.740953c1.629057,0.239187 2.029856,0.239187 3.953049,-0.006464c0.927657,-0.113129 1.709863,-0.245652 2.411262,-0.410497c0,0.788671 0,1.696935 0,2.763579c0,5.708164 -0.067877,7.544085 -0.294135,8.080639c-0.426658,1.021393 -1.383405,2.071876 -2.314295,2.543786c-0.927657,0.471909 -1.215328,0.992302 -0.824225,1.470676c0.216561,0.258581 0.633522,0.303832 2.033089,0.213329c2.656914,-0.164845 4.534855,-1.147451 5.491602,-2.87994c0.307065,-0.555948 0.378174,-1.674308 0.475142,-7.492369c0.103432,-6.312595 0.148684,-6.92026 0.55918,-7.822059c0.248884,-0.536554 0.607664,-1.11836 0.808064,-1.276741c0.336155,-0.277974 0.35878,0.27151 0.35878,7.822059c-0.003232,8.332756 -0.08727,9.337987 -0.921192,10.941186c-0.187471,0.365245 -0.543019,0.840387 -0.791903,1.066645c-0.436355,0.397567 -0.620593,1.415728 -0.316761,1.722792c0.500999,0.497767 3.012462,-0.284439 4.382939,-1.364012c2.333688,-1.84885 2.611662,-3.377707 2.631056,-14.419093l0.009697,-6.477441l0.707864,0.067877l0.707864,0.064645l0.116361,8.471743c0.132522,9.538387 0.151916,9.677374 1.774508,11.51976c0.921193,1.040786 1.848851,1.616128 3.358314,2.065411c2.02016,0.607664 2.627824,-0.32969 1.270277,-1.955515c-1.477141,-1.768043 -1.548251,-2.443585 -1.467444,-12.909629c0.054948,-6.710163 0.054948,-6.710163 0.48807,-6.31906c0.911496,0.827457 1.086038,2.185004 1.086038,8.478207c0,7.815594 0.223026,8.559013 2.983372,9.923025c1.28967,0.63029 1.651683,0.707864 3.303366,0.714329c1.758347,0.006464 1.865011,-0.019394 1.929657,-0.478374c0.054948,-0.37171 -0.161613,-0.623826 -0.982606,-1.124825c-1.076341,-0.662613 -1.822993,-1.509464 -2.29167,-2.576108c-0.177774,-0.410497 -0.297367,-3.099734 -0.378174,-8.636588c-0.116361,-7.734788 -0.142219,-8.087104 -0.623825,-9.2992c-0.649683,-1.629057 -1.641986,-2.915495 -2.899333,-3.76881c-0.326458,-0.213329 -0.652916,-0.391103 -1.076342,-0.523626c0.520394,-0.051716 1.024626,-0.106664 1.512696,-0.177774c5.081106,-0.675541 7.767111,-1.237954 9.923026,-2.071876c4.560713,-1.755115 7.644285,-4.670609 9.315361,-8.804665c0.148684,-0.368477 0.297367,-0.71756 0.423425,-0.998767l1.286438,0.106665c6.629357,0.55918 11.97874,1.357547 16.093402,2.401566c2.256114,0.572109 2.686005,0.639987 2.159147,0.339387c-0.491303,-0.274742 -4.790203,-1.247651 -7.699234,-1.735722zm-19.438786,-0.100199c-0.753116,1.654914 -2.854082,3.781739 -4.551016,4.615661c-1.674309,0.827457 -4.298901,1.457747 -7.272576,1.758347c-2.033089,0.206864 -13.371842,0.268277 -15.243318,0.084039c-6.196235,-0.607664 -9.667678,-1.800367 -12.227624,-4.189004c-2.424192,-2.269043 -3.555482,-5.349383 -3.358314,-9.140819c0.126058,-2.372476 0.698167,-3.862546 2.194702,-5.672609c1.360779,-1.648451 2.792669,-2.666611 4.479906,-3.183772c1.412496,-0.433123 5.746951,-0.47191 11.574708,-0.096968c2.576108,0.164845 4.706165,0.164845 7.279041,0c6.096034,-0.384638 10.165444,-0.342619 11.668443,0.122826c2.362779,0.73049 4.515461,2.695701 5.808364,5.313828c0.581806,1.170077 0.694935,1.667844 0.778973,3.474675c0.116362,2.488837 -0.313528,5.132823 -1.131289,6.913796zm-30.738753,-10.685838c-3.468211,-0.607664 -5.449583,5.32999 -2.789437,8.361846c1.263812,1.438353 2.385405,1.674308 3.788204,0.801599c1.299367,-0.811296 2.003999,-2.327224 2.003999,-4.292436c0,-2.621359 -1.192703,-4.547784 -3.002766,-4.871009zm21.051682,0.355548c-3.46821,-0.607664 -5.452815,5.323525 -2.792669,8.358613c1.267044,1.438354 2.385405,1.677541 3.791436,0.798368c1.296135,-0.808064 2.003999,-2.327225 2.003999,-4.292436c0,-2.611663 -1.192703,-4.544552 -3.002766,-4.864545zm-9.32829,11.674908c-0.074342,0.239187 -0.436355,0.594735 -0.8016,0.785438c-0.924425,0.475142 -1.590269,0.310297 -2.566411,-0.578574c-0.604432,-0.546251 -0.879173,-0.833922 -1.063412,-0.261812c-0.171309,0.53009 0.905032,1.593502 1.735722,1.91996c0.762812,0.303832 1.309063,0.313528 2.136521,-0.032323c0.820993,-0.342619 1.538553,-1.263812 1.538553,-1.861779c0,-0.555948 -0.798367,-0.53009 -0.979373,0.02909zm-1.024625,-1.858547c0.526857,-0.465445 0.646451,-1.422193 0.142219,-1.929657s-1.528857,-0.42989 -1.929657,0.138987c-0.465445,0.665845 -0.216561,1.173309 0.116362,1.713096c0.51716,0.400799 1.212095,0.481606 1.671076,0.077574z" fill-opacity="0" stroke-linecap="null" stroke-linejoin="null" stroke-dasharray="null" stroke-width="2" stroke="#000000" fill="#000000"/>
  <path id="svg_4" d="m162.538446,50.944574c2.208446,0.001797 4.31806,0.384546 6.316263,1.024259l-1.581312,2.734951l11.225517,0l-2.806829,-4.862534l-2.805031,-4.85894l-1.477089,2.560647c-2.767296,-1.01168 -5.750225,-1.577718 -8.869722,-1.577718c-14.359389,0 -25.998203,11.638814 -25.998203,25.998203c0,5.960467 2.026954,11.435759 5.399821,15.822103l3.953279,-3.035041c-2.727763,-3.545373 -4.368374,-7.969452 -4.377358,-12.785265c0.019766,-11.610063 9.412398,-21.002695 21.020664,-21.020665zm20.60018,5.202157l-3.953279,3.036837c2.727763,3.543576 4.368374,7.965858 4.375561,12.783468c-0.019766,11.608266 -9.412399,21.000899 -21.020665,21.020665c-2.057502,-0.003594 -4.025157,-0.337826 -5.901168,-0.896676l1.487871,-2.573225l-11.225517,0l2.805032,4.85894l2.806828,4.86433l1.565139,-2.715184c2.654089,0.92363 5.495059,1.439353 8.461815,1.44115c14.361186,-0.003594 25.998204,-11.642408 26.001797,-26.001797c-0.003593,-5.960467 -2.032345,-11.433962 -5.403414,-15.818508z" fill-opacity="0" stroke-linecap="null" stroke-linejoin="null" stroke-dasharray="null" stroke-width="3" stroke="#000000" fill="#000000"/>
  <path id="svg_7" d="m97.414525,64.913202c0.056717,-0.58209 0.089553,-1.17015 0.089553,-1.764179c0,-10.304478 -8.352239,-18.656717 -18.656717,-18.656717c-7.997015,0 -14.8,5.041791 -17.453732,12.116418c-1.758209,-1.928358 -4.265671,-3.161194 -7.080597,-3.161194c-5.307462,0 -9.608955,4.301493 -9.608955,9.608955c0,0.626866 0.068657,1.238806 0.185075,1.829851c-7.080597,1.167164 -12.498508,7.271642 -12.498508,14.680597c0,8.244777 6.683582,14.925374 14.925373,14.925374l47.388061,0c8.244776,0 14.925373,-6.680597 14.925373,-14.925374c0.002985,-7.316418 -5.268657,-13.376119 -12.214926,-14.653731z" stroke-linecap="null" stroke-linejoin="null" stroke-dasharray="null" stroke-width="3" stroke="#000000" fill="#55dcf4"/>
 </g>
</svg>