<?xml version="1.0"?>
<svg width="525" height="350" xmlns="http://www.w3.org/2000/svg" xmlns:svg="http://www.w3.org/2000/svg">
 <!-- Created with SVG-edit - http://svg-edit.googlecode.com/ -->
 <g>
  <title>Layer 1</title>
  <path stroke="#000000" fill-opacity="0" id="svg_1" d="m345.102319,157.427963c-6.435786,-1.082455 -13.134148,-1.795161 -18.573218,-1.988074l-0.959205,-0.032152c0.219706,-0.482282 0.385826,-0.809162 0.439413,-0.85739c0.117891,-0.096456 0.214348,-0.503717 0.225065,-0.90026c0,-0.219706 0.096456,-0.932412 0.2465,-1.875541c1.47364,0.053587 3.429561,0.096456 5.56232,0.112532c8.236306,0.064304 16.853079,0.728782 22.763713,1.773726c3.520659,0.621608 4.683495,0.600173 2.08453,-0.032152c-2.631117,-0.637684 -10.433369,-1.575455 -16.649448,-1.982715c-4.174419,-0.284011 -10.160075,-0.391184 -13.686093,-0.332239c0.101815,-0.610891 0.219706,-1.291444 0.342956,-1.988074c0.498358,-2.695421 0.664478,-5.406918 0.675195,-10.803118c0.010717,-8.370273 -0.439413,-10.67451 -3.166986,-16.210036c-1.109249,-2.261367 -2.363182,-4.179778 -3.879691,-5.915993c1.323596,-3.906485 1.291444,-9.956445 -0.08038,-15.261548c-1.130683,-4.351256 -1.527227,-4.629908 -5.471222,-3.793952c-3.343822,0.712706 -6.023167,1.682629 -9.458087,3.413485c-1.623683,0.819879 -3.863615,2.095248 -5.487298,3.097323c-4.233365,-1.489716 -8.611414,-2.475715 -13.284191,-3.006225c-4.737082,-0.535869 -16.349362,-0.235782 -20.470194,0.525152c-4.029735,0.744858 -7.657567,1.655835 -10.942444,2.73829c-1.639759,-1.012792 -4.019017,-2.379258 -5.717722,-3.236648c-3.450996,-1.736215 -6.130341,-2.70078 -9.48488,-3.413485c-3.933278,-0.841314 -4.340539,-0.557304 -5.465863,3.793952c-1.393259,5.374766 -1.403977,11.526541 -0.026793,15.422309c0.160761,0.444771 0.257217,0.760934 0.294728,1.007434c-5.583755,7.030601 -7.405709,14.897157 -6.194645,25.877112c0.316163,2.86154 0.803803,5.487298 1.484357,7.89335c-3.563529,-0.021435 -8.632849,0.107174 -12.292834,0.342956c-6.226797,0.412619 -14.029049,1.339672 -16.660166,1.977356c-2.593606,0.632325 -1.441487,0.65376 2.08453,0.037511c5.910635,-1.039586 14.532766,-1.714781 22.763713,-1.773726c1.55402,-0.005359 3.006225,-0.037511 4.254799,-0.069663c0.375108,1.270009 0.803803,2.481073 1.291444,3.633192l-0.037511,0.005359c-5.43907,0.187554 -12.132073,0.90026 -18.567859,1.982715c-4.828179,0.809162 -11.955236,2.427486 -12.785833,2.893692c-0.873466,0.487641 -0.160761,0.380467 3.579605,-0.568021c6.821612,-1.725498 15.690243,-3.049094 26.675557,-3.970789l1.22714,-0.107174c2.357823,5.476581 5.991015,9.656359 11.124639,12.914442c3.140192,1.998791 8.172002,4.051169 10.706662,4.372691c0.69663,0.085739 2.722214,0.503717 4.501299,0.921695c1.784444,0.417978 5.272951,1.044944 7.748665,1.403977l0.058946,0c-0.048228,0.032152 -0.091098,0.053587 -0.133967,0.085739c-3.000866,1.559379 -4.951429,3.986865 -6.264308,7.807611c-0.589456,0.176837 -1.323596,0.417978 -2.116682,0.691271c-2.834747,0.964564 -3.938637,1.162836 -6.810894,1.18427c-2.979431,0.021435 -3.686778,-0.107174 -5.465863,-0.943129c-2.588247,-1.205705 -4.999657,-3.424203 -6.607264,-6.071395c-2.684703,-4.426278 -7.325329,-7.555752 -11.194302,-7.555752c-3.306311,0 -3.933278,1.339672 -1.543303,3.295594c3.601039,2.941921 6.291102,5.942787 7.394992,8.236306c0.621608,1.286085 1.575455,3.274159 2.1274,4.41556c0.584097,1.216423 1.832672,2.866899 3.022301,4.0083c2.797236,2.668627 5.498015,3.943996 9.52775,4.544169c2.70078,0.396543 3.365257,0.396543 6.553677,-0.010717c1.537944,-0.187554 2.834747,-0.40726 3.997582,-0.680554c0,1.30752 0,2.813312 0,4.58168c0,9.463446 -0.112532,12.507181 -0.487641,13.396724c-0.707347,1.693346 -2.293519,3.43492 -3.836822,4.217289c-1.537944,0.782369 -2.014867,1.645118 -1.366466,2.438204c0.359032,0.428695 1.050303,0.503717 3.370616,0.353674c4.404843,-0.273293 7.518241,-1.902335 9.104414,-4.774592c0.509076,-0.921695 0.626967,-2.775801 0.787727,-12.421442c0.171478,-10.465521 0.2465,-11.472954 0.927053,-12.968029c0.412619,-0.889542 1.007434,-1.854107 1.339672,-2.116682c0.557304,-0.460847 0.594815,0.45013 0.594815,12.968029c-0.005359,13.814702 -0.144685,15.481254 -1.527227,18.139164c-0.310804,0.605532 -0.90026,1.393259 -1.312879,1.768368c-0.723423,0.659119 -1.028868,2.347106 -0.525152,2.856182c0.830597,0.825238 4.994299,-0.471565 7.266383,-2.261367c3.868974,-3.06517 4.329821,-5.599831 4.361973,-23.905114l0.016076,-10.738814l1.173553,0.112532l1.173553,0.107174l0.192913,14.045125c0.219706,15.813493 0.251858,16.043916 2.941921,19.09837c1.527227,1.725498 3.06517,2.679345 5.567678,3.424203c3.349181,1.007434 4.356615,-0.546586 2.105965,-3.242007c-2.448921,-2.931203 -2.566812,-4.051169 -2.432845,-21.402606c0.091098,-11.124639 0.091098,-11.124639 0.809162,-10.476238c1.51115,1.371825 1.80052,3.622474 1.80052,14.055843c0,12.957311 0.36975,14.18981 4.94607,16.451177c2.138117,1.044944 2.73829,1.173553 5.476581,1.18427c2.915127,0.010717 3.091964,-0.032152 3.199138,-0.793086c0.091098,-0.616249 -0.267934,-1.034227 -1.629042,-1.864824c-1.784444,-1.098531 -3.022301,-2.502508 -3.799311,-4.270876c-0.294728,-0.680554 -0.492999,-5.138983 -0.626967,-14.318418c-0.192913,-12.823344 -0.235782,-13.407441 -1.034227,-15.41695c-1.077097,-2.70078 -2.722214,-4.833538 -4.806745,-6.248232c-0.541228,-0.353674 -1.082455,-0.648401 -1.784444,-0.868108c0.862749,-0.085739 1.698705,-0.176837 2.507867,-0.294728c8.42386,-1.119966 12.876931,-2.052378 16.451177,-3.43492c7.561111,-2.909768 12.673301,-7.743306 15.443743,-14.59707c0.2465,-0.610891 0.492999,-1.189629 0.701988,-1.655835l2.132758,0.176837c10.990672,0.927053 19.859303,2.25065 26.680915,3.981506c3.740365,0.948488 4.453071,1.061021 3.579605,0.562662c-0.814521,-0.455489 -7.941578,-2.068454 -12.764398,-2.877616zm-32.227159,-0.166119c-1.248575,2.743649 -4.731723,6.269667 -7.545035,7.652209c-2.775801,1.371825 -7.127057,2.416769 -12.057051,2.915127c-3.370616,0.342956 -22.168899,0.444771 -25.27158,0.139326c-10.272608,-1.007434 -16.02784,-2.98479 -20.271923,-6.944862c-4.019017,-3.7618 -5.894558,-8.868631 -5.567678,-15.154374c0.208989,-3.933278 1.157477,-6.403634 3.63855,-9.4045c2.256008,-2.732932 4.629908,-4.420919 7.427144,-5.278309c2.341747,-0.718064 9.52775,-0.782369 19.189467,-0.160761c4.270876,0.273293 7.802252,0.273293 12.067769,0c10.106488,-0.637684 16.853079,-0.568021 19.344869,0.20363c3.917202,1.211064 7.486089,4.469147 9.629565,8.809686c0.964564,1.939846 1.152118,2.765084 1.291444,5.760591c0.192913,4.126191 -0.519793,8.509599 -1.875541,11.462237zm-50.961138,-17.715828c-5.749874,-1.007434 -9.034751,8.836479 -4.624549,13.86293c2.095248,2.384617 3.954713,2.775801 6.280384,1.328955c2.154193,-1.345031 3.322388,-3.858256 3.322388,-7.11634c0,-4.345897 -1.977356,-7.539676 -4.978223,-8.075545zm34.901145,0.589456c-5.749874,-1.007434 -9.040109,8.825762 -4.629908,13.857571c2.100606,2.384617 3.954713,2.78116 6.285743,1.323596c2.148835,-1.339672 3.322388,-3.858256 3.322388,-7.11634c0,-4.329821 -1.977356,-7.534317 -4.978223,-8.064828zm-15.465178,19.355587c-0.12325,0.396543 -0.723423,0.985999 -1.328955,1.302162c-1.532585,0.787727 -2.636475,0.514434 -4.254799,-0.959205c-1.002075,-0.905619 -1.457564,-1.382542 -1.763009,-0.434054c-0.284011,0.878825 1.500433,2.641834 2.877616,3.183062c1.264651,0.503717 2.170269,0.519793 3.542094,-0.053587c1.361107,-0.568021 2.550736,-2.095248 2.550736,-3.086605c0,-0.921695 -1.323596,-0.878825 -1.623683,0.048228zm-1.698705,-3.081246c0.873466,-0.771651 1.071738,-2.357823 0.235782,-3.199138s-2.53466,-0.712706 -3.199138,0.230424c-0.771651,1.10389 -0.359032,1.945204 0.192913,2.840105c0.85739,0.664478 2.009509,0.798445 2.770442,0.128609z" stroke-width="5" fill="#000000"/>
  <path id="svg_2" d="m146.677757,148.761389l0.424627,-4.568759l-4.997001,-0.795081c-12.651293,-2.012878 -25.052404,-10.548346 -31.957227,-21.995596c-1.238788,-2.053741 -2.067936,-4.032427 -1.842544,-4.397087c0.517005,-0.836555 13.115053,-7.496626 14.180428,-7.496626c0.434604,0 1.478612,1.224879 2.320005,2.721958c3.588442,6.384744 12.875237,13.044074 19.413789,13.921037l2.650923,0.355566l-0.455795,-3.948522c-0.473171,-4.099087 -0.340097,-4.95984 0.766765,-4.95984c0.707771,0 21.83628,15.74126 22.440283,16.718585c0.458209,0.741379 -2.447826,3.491768 -12.852499,12.164063c-4.519526,3.766974 -8.734595,6.849065 -9.366844,6.849065c-1.011947,0 -1.098706,-0.546825 -0.724913,-4.568759l0.000002,-0.000004z" fill-opacity="0" stroke-linecap="null" stroke-linejoin="null" stroke-dasharray="null" stroke-width="5" stroke="#000000" fill="#000000"/>
  <path id="svg_4" d="m337.709636,283.842195l0.42462,-4.56876l-4.997,-0.79508c-12.65129,-2.01288 -25.0524,-10.54835 -31.95722,-21.9956c-1.23879,-2.05374 -2.06794,-4.03242 -1.84255,-4.39708c0.51701,-0.83656 13.11506,-7.49663 14.18043,-7.49663c0.43461,0 1.47861,1.22488 2.32001,2.72196c3.58844,6.38474 12.87523,13.04407 19.41378,13.92103l2.65093,0.35557l-0.4558,-3.94852c-0.47317,-4.09909 -0.34009,-4.95984 0.76677,-4.95984c0.70777,0 21.83628,15.74126 22.44028,16.71858c0.45821,0.74138 -2.44783,3.49177 -12.8525,12.16407c-4.51952,3.76697 -8.73459,6.84906 -9.36684,6.84906c-1.01195,0 -1.09871,-0.54682 -0.72492,-4.56876l0.00001,0z" fill-opacity="0" stroke-linecap="null" stroke-linejoin="null" stroke-dasharray="null" stroke-width="5" stroke="#000000" fill="#000000"/>
  <path id="svg_5" d="m79.6693,40.581203c0,0 2.635088,-9.773762 0,-13.084589c-2.638191,-3.310827 -3.690364,-5.516189 -9.491281,-7.095027s-3.68726,-1.264185 -7.905263,-1.102681c-4.218002,0.158719 -7.734556,2.205362 -7.734556,3.308043c0,0 -2.635088,0.158719 -3.68726,1.105465c-1.055277,0.946746 -2.812002,5.35747 -2.812002,6.462935s0.878363,8.515147 1.756725,10.091201l-1.045965,0.314654c-0.878363,9.14167 3.51345,10.247135 3.51345,10.247135c1.579811,8.515147 3.162726,4.889666 3.162726,7.095027s-1.582915,1.420119 -1.582915,1.420119s-1.402897,3.466762 -4.916347,4.728162c-3.51345,1.258616 -23.017443,8.036205 -24.603461,9.456324c-1.586019,1.422904 -1.406001,8.041774 -1.406001,8.041774l83.636871,0c0,0 0.183122,-6.61887 -1.402897,-8.041774c-1.589122,-1.422904 -21.093115,-8.197708 -24.606565,-9.456324c-3.51345,-1.2614 -4.916347,-4.728162 -4.916347,-4.728162s-1.582915,0.785242 -1.582915,-1.420119s1.582915,1.420119 3.16583,-7.095027c0,0 4.388709,-1.105465 3.51345,-10.247135l-1.055277,0z" fill-opacity="0" stroke-linecap="null" stroke-linejoin="null" stroke-dasharray="null" stroke-width="5" stroke="#000000" fill="#000000"/>
  <path id="svg_6" d="m468.613947,311.617291c-4.06887,-1.628267 -5.693543,-6.103306 -5.693543,-6.103306s-1.833148,1.013623 -1.833148,-1.833148s1.833148,1.833148 3.666297,-9.158553c0,0 5.082494,-1.42698 4.06887,-13.227423l-1.222099,0c0,0 3.051653,-12.616374 0,-16.890126c-3.055247,-4.273752 -4.273752,-7.120523 -10.991701,-9.158553s-4.270157,-1.631861 -9.154958,-1.423386c-4.884801,0.204881 -8.957266,2.846772 -8.957266,4.270157c0,0 -3.051653,0.204881 -4.270157,1.42698c-1.222099,1.222099 -3.256534,6.915642 -3.256534,8.342622s1.017218,10.991701 2.034435,13.026136l-1.211316,0.406168c-1.017218,11.800443 4.06887,13.227423 4.06887,13.227423c1.829554,10.991701 3.662702,6.311781 3.662702,9.158553s-1.833148,1.833148 -1.833148,1.833148s-1.624673,4.475039 -5.693543,6.103306c-4.06887,1.624673 -26.656133,10.373463 -28.492876,12.206611c-1.836743,1.836743 -1.628267,10.380652 -1.628267,10.380652l96.858526,0c0,0 0.21207,-8.543909 -1.624673,-10.380652c-1.840337,-1.833148 -24.4276,-10.581939 -28.496471,-12.206611zm-44.822274,-0.618238c-0.355846,-0.646994 -0.531972,-1.114267 -0.531972,-1.114267s-1.552784,0.859064 -1.552784,-1.552784s1.552784,1.552784 3.105569,-7.760328c0,0 4.309696,-1.207721 3.447038,-11.21096l-1.03519,0c0,0 0.514,-2.124295 0.851875,-4.794941c-0.014378,-1.107078 0.021566,-2.286044 0.132993,-3.580031l0.136588,-1.531218c-0.075483,-1.768449 -0.384602,-3.37515 -1.121455,-4.406745c-2.587974,-3.619569 -3.623164,-6.035012 -9.313112,-7.760328c-5.689949,-1.725316 -3.623164,-1.383847 -7.760328,-1.207721c-4.140759,0.172532 -7.591391,2.411848 -7.591391,3.623164c0,0 -2.587974,0.172532 -3.623164,1.207721c-0.974085,0.974085 -2.534058,5.255025 -2.720967,6.77546l0,1.010029c0.168937,2.347149 0.927357,8.802706 1.685778,10.323141l-1.028001,0.345063c-0.859064,10.003239 3.447038,11.21096 3.447038,11.21096c1.552784,9.313112 3.105569,5.34848 3.105569,7.760328s-1.552784,1.552784 -1.552784,1.552784s-1.376658,3.79929 -4.827291,5.172354c-0.219259,0.086266 -0.499623,0.201287 -0.833903,0.330686l0,18.813134l2.066785,0c-0.104238,-4.593654 0.276769,-10.520834 2.681429,-12.918304c1.279609,-1.276015 5.474284,-3.37515 22.831683,-10.287197zm80.263142,-32.550963c-0.143776,-1.358686 -0.45649,-2.570002 -1.049567,-3.40031c-2.58438,-3.623164 -3.623164,-6.035012 -9.309518,-7.760328c-5.693543,-1.725316 -3.623164,-1.383847 -7.763922,-1.207721c-4.137164,0.172532 -7.587796,2.411848 -7.587796,3.623164c0,0 -2.58438,0.172532 -3.623164,1.207721c-0.974085,0.977679 -2.548436,5.290969 -2.724562,6.797026l0.118615,0l0.287553,3.281695c0.071888,0.830308 0.079077,1.567162 0.097049,2.318393c0.323497,2.393876 0.754826,4.852451 1.186155,5.711515l-1.028001,0.345063c-0.859064,10.003239 3.450632,11.21096 3.450632,11.21096c1.552784,9.313112 3.101975,5.34848 3.101975,7.760328s-1.552784,1.552784 -1.552784,1.552784s-0.190504,0.510406 -0.585889,1.21491c17.145329,6.829376 21.304059,8.914133 22.569291,10.186554c2.408254,2.39747 2.785667,8.321056 2.681429,12.918304l1.725316,0l0,-19.071931c-0.057511,-0.021566 -0.136588,-0.053916 -0.186909,-0.075483c-3.447038,-1.376658 -4.827291,-5.172354 -4.827291,-5.172354s-1.556379,0.859064 -1.556379,-1.552784s1.556379,1.552784 3.105569,-7.760328c0,0 2.889904,-0.82312 3.461415,-6.617306l0,-4.410339c-0.003594,-0.064699 -0.003594,-0.118615 -0.010783,-0.183315l-1.038784,0c0,0 0.772798,-3.199024 1.049567,-6.689194l0,-4.227024l0.010783,0z" fill-opacity="0" stroke-linecap="null" stroke-linejoin="null" stroke-dasharray="null" stroke-width="5" stroke="#000000" fill="#000000"/>
 </g>
</svg>